# xmcd
#
# Track frame offsets: 
#        150
#        16664
#        34574
#        53635
#        71892
#        91326
#        109191
#        128458
#        144431
#        163514
#
# Disc length: 2954 seconds
#
# Revision: 1
# Processed by: cddbd v1.5.2PL0 Copyright (c) Steve Scherf et al.
# Submitted via: ExactAudioCopy v0.99pb4
#
DISCID=760b880a
DTITLE=Deborah Bishop - Just My Alibi
DYEAR=2004
DGENRE=Country
TTITLE0=Just My Alibi
TTITLE1=Please Baby Please
TTITLE2=Crazy Feeling
TTITLE3=I Am
TTITLE4=Who's That Girl
TTITLE5=Summer
TTITLE6=Wild at Heart
TTITLE7=You Ain't Got No One
TTITLE8=When Tomorrow Comes
TTITLE9=Love is the Word
EXTD=YEAR: 2004
EXTT0=
EXTT1=
EXTT2=
EXTT3=
EXTT4=
EXTT5=
EXTT6=
EXTT7=
EXTT8=
EXTT9=
PLAYORDER=
